<svg width="40" height="42" viewBox="0 0 40 42" fill="none" xmlns="http://www.w3.org/2000/svg">
<g clip-path="url(#clip0_308_173)">
<path fill-rule="evenodd" clip-rule="evenodd" d="M22.1963 44.1H2.29368C1.02656 44.1 0 43.0099 0 41.6659V2.43411C0 1.08941 1.02656 0 2.29368 0H39.2624C40.5289 0 41.5558 1.08941 41.5558 2.43411V41.6659C41.5558 43.0102 40.5289 44.1 39.2624 44.1H28.6728V27.0219H34.0744L34.8831 20.3663H28.6728V16.1172C28.6728 14.1902 29.177 12.8772 31.7807 12.8772L35.1016 12.8758V6.92301C34.5273 6.84205 32.556 6.66082 30.2623 6.66082C25.474 6.66082 22.196 9.76264 22.196 15.4584V20.3666H16.7807V27.0223H22.1963V44.1Z" fill="#305140"/>
</g>
<defs>
<clipPath id="clip0_308_173">
<rect width="39.5769" height="42" rx="8" fill="white"/>
</clipPath>
</defs>
</svg>
