<svg width="16" height="17" viewBox="0 0 16 17" fill="none" xmlns="http://www.w3.org/2000/svg">
<g clip-path="url(#clip0_139_2201)">
<path d="M15.928 13.5498L15.8484 13.2949C15.6598 12.6992 15.0415 12.0779 14.4736 11.9143L12.3715 11.3041C11.8015 11.1394 10.9883 11.3609 10.5712 11.804L9.81047 12.6124C7.04566 11.8186 4.87761 9.51496 4.13152 6.57791L4.89233 5.76956C5.3094 5.32642 5.5179 4.46358 5.36282 3.85791L4.78962 1.62338C4.63454 1.01881 4.04877 0.361939 3.48922 0.163742L3.24926 0.0780216C2.68864 -0.120176 1.8891 0.0802661 1.47207 0.523369L0.334058 1.73361C0.130753 1.94848 0.000816572 2.56306 0.000816572 2.5653C-0.0389859 6.40419 1.37774 10.1028 3.93348 12.8183C6.48296 15.5271 9.95094 17.0302 13.5535 16.9979C13.5724 16.9979 14.1676 16.862 14.3709 16.6471L15.5089 15.438C15.9259 14.9949 16.1145 14.1455 15.928 13.5498Z" fill="black"/>
</g>
<defs>
<clipPath id="clip0_139_2201">
<rect width="16" height="17" fill="white"/>
</clipPath>
</defs>
</svg>
