<svg width="42" height="42" viewBox="0 0 42 42" fill="none" xmlns="http://www.w3.org/2000/svg">
<path d="M7.35 42L34.65 42C38.7093 42 42 38.7093 42 34.65L42 7.35C42 3.29071 38.7093 0 34.65 0L7.35 0C3.29071 0 0 3.29071 0 7.35L0 34.65C0 38.7093 3.29071 42 7.35 42Z" fill="url(#paint0_radial_308_179)"/>
<path d="M28.875 36.75H13.125C11.0364 36.75 9.03338 35.9203 7.55653 34.4435C6.07969 32.9666 5.25 30.9636 5.25 28.875V13.125C5.25 11.0364 6.07969 9.03338 7.55653 7.55653C9.03338 6.07969 11.0364 5.25 13.125 5.25H28.875C30.9636 5.25 32.9666 6.07969 34.4435 7.55653C35.9203 9.03338 36.75 11.0364 36.75 13.125V28.875C36.75 30.9636 35.9203 32.9666 34.4435 34.4435C32.9666 35.9203 30.9636 36.75 28.875 36.75ZM13.125 8.4C11.8724 8.40174 10.6716 8.9001 9.78584 9.78584C8.9001 10.6716 8.40174 11.8724 8.4 13.125V28.875C8.40174 30.1276 8.9001 31.3284 9.78584 32.2142C10.6716 33.0999 11.8724 33.5983 13.125 33.6H28.875C30.1276 33.5983 31.3284 33.0999 32.2142 32.2142C33.0999 31.3284 33.5983 30.1276 33.6 28.875V13.125C33.5983 11.8724 33.0999 10.6716 32.2142 9.78584C31.3284 8.9001 30.1276 8.40174 28.875 8.4H13.125Z" fill="#F5F5F5"/>
<path d="M21 29.925C19.2348 29.925 17.5092 29.4016 16.0415 28.4209C14.5738 27.4402 13.4298 26.0463 12.7543 24.4155C12.0788 22.7846 11.9021 20.9901 12.2464 19.2588C12.5908 17.5276 13.4408 15.9373 14.689 14.6891C15.9372 13.4409 17.5275 12.5909 19.2588 12.2465C20.9901 11.9021 22.7846 12.0789 24.4154 12.7544C26.0462 13.4299 27.4401 14.5738 28.4208 16.0416C29.4015 17.5093 29.925 19.2348 29.925 21C29.9232 23.3665 28.9824 25.6356 27.309 27.309C25.6356 28.9824 23.3665 29.9233 21 29.925ZM21 15.225C19.8578 15.225 18.7412 15.5637 17.7915 16.1983C16.8418 16.8328 16.1016 17.7348 15.6646 18.79C15.2275 19.8453 15.1131 21.0064 15.3359 22.1267C15.5588 23.2469 16.1088 24.2759 16.9164 25.0836C17.7241 25.8912 18.7531 26.4412 19.8733 26.6641C20.9935 26.8869 22.1547 26.7725 23.21 26.3354C24.2652 25.8983 25.1671 25.1581 25.8017 24.2084C26.4363 23.2587 26.775 22.1422 26.775 21C26.7732 19.4689 26.1642 18.001 25.0816 16.9184C23.9989 15.8357 22.531 15.2268 21 15.225Z" fill="#F5F5F5"/>
<path d="M29.9251 14.175C30.7949 14.175 31.5001 13.4698 31.5001 12.6C31.5001 11.7301 30.7949 11.025 29.9251 11.025C29.0552 11.025 28.3501 11.7301 28.3501 12.6C28.3501 13.4698 29.0552 14.175 29.9251 14.175Z" fill="#F5F5F5"/>
<defs>
<radialGradient id="paint0_radial_308_179" cx="0" cy="0" r="1" gradientUnits="userSpaceOnUse" gradientTransform="translate(-0.84492 41.1469) rotate(180) scale(96.9905)">
<stop stop-color="#305140"/>
</radialGradient>
</defs>
</svg>
