<svg width="21" height="31" viewBox="0 0 21 31" fill="none" xmlns="http://www.w3.org/2000/svg">
<path d="M13.6563 0.5C12.6563 0.1875 11.5938 0 10.5 0C7.28125 0 4.40625 1.46875 2.46875 3.75L7.4375 7.90625L13.6563 0.5Z" fill="#305140"/>
<path d="M2.46875 3.75C0.937499 5.5625 0 7.9375 0 10.5C0 12.4688 0.40625 14.0625 1.03125 15.5L7.40625 7.9375L2.46875 3.75Z" fill="#305140"/>
<path d="M10.5 6.46875C12.7188 6.46875 14.5 8.25 14.5 10.4688C14.5 11.4688 14.1563 12.375 13.5625 13.0625C13.5625 13.0625 16.7188 9.28125 19.8125 5.625C18.5313 3.1875 16.3438 1.3125 13.6875 0.46875L7.4375 7.90625C8.15625 7.03125 9.25 6.46875 10.5 6.46875Z" fill="#305140"/>
<path d="M10.5 14.5C8.28125 14.5 6.5 12.7188 6.5 10.5C6.5 9.53125 6.84375 8.625 7.4375 7.9375L1.0625 15.5C2.125 17.9062 3.9375 19.8437 5.8125 22.2812L13.5625 13.0625C12.8438 13.9375 11.7188 14.5 10.5 14.5Z" fill="#305140"/>
<path d="M20.5 10.5C20.5 13.5416 19.5263 15.6546 18.1051 17.699L13.4063 24.8125L12.9866 24.5407C12.9863 24.5411 12.9861 24.5415 12.9858 24.5418C11.9505 26.1408 11.5356 27.4465 11.2492 28.3475C11.2309 28.4051 11.2131 28.4611 11.1957 28.5154C11.045 28.9859 10.9455 29.2515 10.8305 29.4102C10.7821 29.477 10.7421 29.5075 10.7074 29.525C10.6718 29.543 10.6112 29.5625 10.5 29.5625C10.3888 29.5625 10.3282 29.543 10.2926 29.525C10.2579 29.5075 10.2179 29.477 10.1695 29.4102C10.0545 29.2515 9.95499 28.9859 9.80429 28.5154C9.78689 28.4611 9.76909 28.4051 9.75077 28.3475C9.4645 27.4467 9.04967 26.1414 8.01483 24.5429C7.49194 23.7174 6.97003 22.9887 6.45191 22.2982L19.6912 6.57656C20.208 7.7921 20.5 9.10507 20.5 10.5Z" fill="#305140" stroke="#305140"/>
</svg>
